<!-- Generator: Adobe Illustrator 22.1.0, SVG Export Plug-In  -->
<svg version="1.1"
	 xmlns="http://www.w3.org/2000/svg" xmlns:xlink="http://www.w3.org/1999/xlink" xmlns:a="http://ns.adobe.com/AdobeSVGViewerExtensions/3.0/"
	 x="0px" y="0px" width="137.821px" height="126.34px" viewBox="0 0 137.821 126.34"
	 style="enable-background:new 0 0 137.821 126.34;" xml:space="preserve">
<style type="text/css">
	.st0{fill:#FFFFFF;}
</style>
<defs>
</defs>
<g>
	<path class="st0" d="M128.854,38.228h-4.261V26.194h7.77c2.5,0,4.528-2.027,4.528-4.528V4.528c0-2.501-2.027-4.528-4.528-4.528
		H90.231c-2.501,0-4.528,2.027-4.528,4.528v17.138c0,2.501,2.027,4.528,4.528,4.528H98v12.033H84.336
		c18.184,6.386,31.261,23.718,31.261,44.057c0,20.337-13.075,37.669-31.257,44.056h44.514c4.952,0,8.967-4.015,8.967-8.967V47.194
		C137.821,42.242,133.806,38.228,128.854,38.228z M93.641,18.256V7.938h35.311v10.317H93.641z M123.732,57.552
		c-3.288,0-5.954-2.666-5.954-5.953c0-3.288,2.666-5.954,5.954-5.954c3.288,0,5.953,2.666,5.953,5.954
		C129.686,54.886,127.02,57.552,123.732,57.552z"/>
	<path class="st0" d="M22.225,82.284c0-20.338,13.077-37.671,31.26-44.057H40.779v-5.034c0-2.33-1.889-4.219-4.218-4.219H19.432
		c-2.33,0-4.218,1.889-4.218,4.219v5.034H8.967C4.015,38.228,0,42.242,0,47.194v70.179c0,4.952,4.015,8.967,8.967,8.967h44.515
		C35.3,119.953,22.225,102.621,22.225,82.284z"/>
	
		<ellipse transform="matrix(0.9999 -0.0131 0.0131 0.9999 -1.0732 0.9108)" class="st0" cx="68.911" cy="82.284" rx="38.748" ry="38.749"/>
</g>
</svg>